<mxfile host="app.diagrams.net" modified="2021-02-17T21:46:25.932Z" agent="5.0 (Windows NT 10.0; Win64; x64) AppleWebKit/537.36 (KHTML, like Gecko) Chrome/87.0.4280.141 Safari/537.36 OPR/73.0.3856.396" etag="ZnbcvuDiXuBC11amfsAH" version="14.4.0" type="github" pages="2">
  <diagram id="aUDwfyTttYp7JzktT4R8" name="Use Case">
    <mxGraphModel dx="992" dy="580" grid="1" gridSize="10" guides="1" tooltips="1" connect="1" arrows="1" fold="1" page="1" pageScale="1" pageWidth="850" pageHeight="1100" math="0" shadow="0">
      <root>
        <mxCell id="0" />
        <mxCell id="1" parent="0" />
        <mxCell id="iFaVGZIMUdsgW3-iYXQg-60" style="edgeStyle=orthogonalEdgeStyle;rounded=0;orthogonalLoop=1;jettySize=auto;html=1;endArrow=none;endFill=0;" edge="1" parent="1" source="iFaVGZIMUdsgW3-iYXQg-35" target="iFaVGZIMUdsgW3-iYXQg-59">
          <mxGeometry relative="1" as="geometry" />
        </mxCell>
        <mxCell id="iFaVGZIMUdsgW3-iYXQg-71" style="edgeStyle=orthogonalEdgeStyle;rounded=0;orthogonalLoop=1;jettySize=auto;html=1;endArrow=none;endFill=0;" edge="1" parent="1" source="iFaVGZIMUdsgW3-iYXQg-35" target="iFaVGZIMUdsgW3-iYXQg-69">
          <mxGeometry relative="1" as="geometry">
            <Array as="points">
              <mxPoint x="180" y="250" />
              <mxPoint x="180" y="315" />
            </Array>
          </mxGeometry>
        </mxCell>
        <mxCell id="iFaVGZIMUdsgW3-iYXQg-35" value="PO" style="shape=umlActor;verticalLabelPosition=bottom;verticalAlign=top;html=1;" vertex="1" parent="1">
          <mxGeometry x="40" y="220" width="30" height="60" as="geometry" />
        </mxCell>
        <mxCell id="iFaVGZIMUdsgW3-iYXQg-65" style="edgeStyle=orthogonalEdgeStyle;rounded=0;orthogonalLoop=1;jettySize=auto;html=1;entryX=0;entryY=0.5;entryDx=0;entryDy=0;endArrow=none;endFill=0;" edge="1" parent="1" source="iFaVGZIMUdsgW3-iYXQg-36" target="iFaVGZIMUdsgW3-iYXQg-64">
          <mxGeometry relative="1" as="geometry" />
        </mxCell>
        <mxCell id="iFaVGZIMUdsgW3-iYXQg-36" value="Scrum Master" style="shape=umlActor;verticalLabelPosition=bottom;verticalAlign=top;html=1;" vertex="1" parent="1">
          <mxGeometry x="40" y="470" width="30" height="60" as="geometry" />
        </mxCell>
        <mxCell id="iFaVGZIMUdsgW3-iYXQg-68" style="edgeStyle=orthogonalEdgeStyle;rounded=0;orthogonalLoop=1;jettySize=auto;html=1;endArrow=none;endFill=0;" edge="1" parent="1" source="iFaVGZIMUdsgW3-iYXQg-37" target="iFaVGZIMUdsgW3-iYXQg-67">
          <mxGeometry relative="1" as="geometry" />
        </mxCell>
        <mxCell id="iFaVGZIMUdsgW3-iYXQg-37" value="Team Member" style="shape=umlActor;verticalLabelPosition=bottom;verticalAlign=top;html=1;" vertex="1" parent="1">
          <mxGeometry x="40" y="340" width="30" height="60" as="geometry" />
        </mxCell>
        <mxCell id="iFaVGZIMUdsgW3-iYXQg-41" value="Scrum Management" style="shape=umlFrame;whiteSpace=wrap;html=1;width=100;height=30;" vertex="1" parent="1">
          <mxGeometry x="110" y="20" width="710" height="550" as="geometry" />
        </mxCell>
        <mxCell id="iFaVGZIMUdsgW3-iYXQg-44" style="edgeStyle=orthogonalEdgeStyle;rounded=0;orthogonalLoop=1;jettySize=auto;html=1;endArrow=none;endFill=0;" edge="1" parent="1" source="iFaVGZIMUdsgW3-iYXQg-42" target="iFaVGZIMUdsgW3-iYXQg-43">
          <mxGeometry relative="1" as="geometry" />
        </mxCell>
        <mxCell id="iFaVGZIMUdsgW3-iYXQg-42" value="Manager" style="shape=umlActor;verticalLabelPosition=bottom;verticalAlign=top;html=1;" vertex="1" parent="1">
          <mxGeometry x="40" y="120" width="30" height="60" as="geometry" />
        </mxCell>
        <mxCell id="iFaVGZIMUdsgW3-iYXQg-54" style="edgeStyle=orthogonalEdgeStyle;rounded=0;orthogonalLoop=1;jettySize=auto;html=1;endArrow=classic;endFill=1;" edge="1" parent="1" source="iFaVGZIMUdsgW3-iYXQg-43" target="iFaVGZIMUdsgW3-iYXQg-52">
          <mxGeometry relative="1" as="geometry" />
        </mxCell>
        <mxCell id="iFaVGZIMUdsgW3-iYXQg-58" style="edgeStyle=orthogonalEdgeStyle;rounded=0;orthogonalLoop=1;jettySize=auto;html=1;entryX=0;entryY=0.5;entryDx=0;entryDy=0;endArrow=classic;endFill=1;" edge="1" parent="1" source="iFaVGZIMUdsgW3-iYXQg-43" target="iFaVGZIMUdsgW3-iYXQg-57">
          <mxGeometry relative="1" as="geometry" />
        </mxCell>
        <mxCell id="iFaVGZIMUdsgW3-iYXQg-43" value="General Project Management" style="ellipse;whiteSpace=wrap;html=1;" vertex="1" parent="1">
          <mxGeometry x="270" y="50" width="170" height="70" as="geometry" />
        </mxCell>
        <mxCell id="iFaVGZIMUdsgW3-iYXQg-45" value="Create Project" style="ellipse;whiteSpace=wrap;html=1;" vertex="1" parent="1">
          <mxGeometry x="495" y="140" width="110" height="40" as="geometry" />
        </mxCell>
        <mxCell id="iFaVGZIMUdsgW3-iYXQg-52" value="Assign Roles" style="ellipse;whiteSpace=wrap;html=1;" vertex="1" parent="1">
          <mxGeometry x="300" y="140" width="110" height="40" as="geometry" />
        </mxCell>
        <mxCell id="iFaVGZIMUdsgW3-iYXQg-56" value="Use" style="endArrow=open;endSize=12;dashed=1;html=1;entryX=1;entryY=0.5;entryDx=0;entryDy=0;exitX=0;exitY=0.5;exitDx=0;exitDy=0;" edge="1" parent="1" source="iFaVGZIMUdsgW3-iYXQg-45" target="iFaVGZIMUdsgW3-iYXQg-52">
          <mxGeometry width="160" relative="1" as="geometry">
            <mxPoint x="350" y="180" as="sourcePoint" />
            <mxPoint x="510" y="180" as="targetPoint" />
          </mxGeometry>
        </mxCell>
        <mxCell id="iFaVGZIMUdsgW3-iYXQg-57" value="View Analytics of All Projects" style="ellipse;whiteSpace=wrap;html=1;" vertex="1" parent="1">
          <mxGeometry x="460" y="65" width="180" height="40" as="geometry" />
        </mxCell>
        <mxCell id="iFaVGZIMUdsgW3-iYXQg-59" value="Product Backlog Management" style="ellipse;whiteSpace=wrap;html=1;" vertex="1" parent="1">
          <mxGeometry x="285" y="190" width="140" height="75" as="geometry" />
        </mxCell>
        <mxCell id="iFaVGZIMUdsgW3-iYXQg-64" value="Sprint Backlog Management" style="ellipse;whiteSpace=wrap;html=1;" vertex="1" parent="1">
          <mxGeometry x="270" y="465" width="140" height="70" as="geometry" />
        </mxCell>
        <mxCell id="iFaVGZIMUdsgW3-iYXQg-67" value="Own Tasks Management" style="ellipse;whiteSpace=wrap;html=1;" vertex="1" parent="1">
          <mxGeometry x="280" y="360" width="140" height="70" as="geometry" />
        </mxCell>
        <mxCell id="iFaVGZIMUdsgW3-iYXQg-69" value="Manage Increments" style="ellipse;whiteSpace=wrap;html=1;" vertex="1" parent="1">
          <mxGeometry x="290" y="280" width="140" height="70" as="geometry" />
        </mxCell>
        <mxCell id="iFaVGZIMUdsgW3-iYXQg-74" style="edgeStyle=orthogonalEdgeStyle;rounded=0;orthogonalLoop=1;jettySize=auto;html=1;endArrow=classic;endFill=1;dashed=1;" edge="1" parent="1" source="iFaVGZIMUdsgW3-iYXQg-72" target="iFaVGZIMUdsgW3-iYXQg-59">
          <mxGeometry relative="1" as="geometry" />
        </mxCell>
        <mxCell id="iFaVGZIMUdsgW3-iYXQg-75" style="edgeStyle=orthogonalEdgeStyle;rounded=0;orthogonalLoop=1;jettySize=auto;html=1;endArrow=classic;endFill=1;dashed=1;" edge="1" parent="1" source="iFaVGZIMUdsgW3-iYXQg-72" target="iFaVGZIMUdsgW3-iYXQg-69">
          <mxGeometry relative="1" as="geometry" />
        </mxCell>
        <mxCell id="iFaVGZIMUdsgW3-iYXQg-76" style="edgeStyle=orthogonalEdgeStyle;rounded=0;orthogonalLoop=1;jettySize=auto;html=1;entryX=1;entryY=0.5;entryDx=0;entryDy=0;endArrow=classic;endFill=1;dashed=1;" edge="1" parent="1" source="iFaVGZIMUdsgW3-iYXQg-72" target="iFaVGZIMUdsgW3-iYXQg-67">
          <mxGeometry relative="1" as="geometry">
            <Array as="points">
              <mxPoint x="560" y="295" />
              <mxPoint x="560" y="395" />
            </Array>
          </mxGeometry>
        </mxCell>
        <mxCell id="iFaVGZIMUdsgW3-iYXQg-78" value="&amp;lt;&amp;lt; includes &amp;gt;&amp;gt;" style="edgeLabel;html=1;align=center;verticalAlign=middle;resizable=0;points=[];" vertex="1" connectable="0" parent="iFaVGZIMUdsgW3-iYXQg-76">
          <mxGeometry x="-0.4506" y="-5" relative="1" as="geometry">
            <mxPoint x="38" as="offset" />
          </mxGeometry>
        </mxCell>
        <mxCell id="iFaVGZIMUdsgW3-iYXQg-77" style="edgeStyle=orthogonalEdgeStyle;rounded=0;orthogonalLoop=1;jettySize=auto;html=1;entryX=1;entryY=0.5;entryDx=0;entryDy=0;endArrow=classic;endFill=1;dashed=1;" edge="1" parent="1" source="iFaVGZIMUdsgW3-iYXQg-72" target="iFaVGZIMUdsgW3-iYXQg-64">
          <mxGeometry relative="1" as="geometry">
            <Array as="points">
              <mxPoint x="600" y="295" />
              <mxPoint x="600" y="500" />
            </Array>
          </mxGeometry>
        </mxCell>
        <mxCell id="iFaVGZIMUdsgW3-iYXQg-80" style="edgeStyle=orthogonalEdgeStyle;rounded=0;orthogonalLoop=1;jettySize=auto;html=1;dashed=1;endArrow=classic;endFill=1;" edge="1" parent="1" source="iFaVGZIMUdsgW3-iYXQg-72">
          <mxGeometry relative="1" as="geometry">
            <mxPoint x="415" y="60" as="targetPoint" />
            <Array as="points">
              <mxPoint x="730" y="50" />
              <mxPoint x="415" y="50" />
            </Array>
          </mxGeometry>
        </mxCell>
        <mxCell id="iFaVGZIMUdsgW3-iYXQg-72" value="Authentification" style="ellipse;whiteSpace=wrap;html=1;" vertex="1" parent="1">
          <mxGeometry x="660" y="260" width="140" height="70" as="geometry" />
        </mxCell>
        <mxCell id="iFaVGZIMUdsgW3-iYXQg-81" value="&amp;lt;&amp;lt; includes &amp;gt;&amp;gt;" style="edgeLabel;html=1;align=center;verticalAlign=middle;resizable=0;points=[];" vertex="1" connectable="0" parent="1">
          <mxGeometry x="760" y="160" as="geometry" />
        </mxCell>
      </root>
    </mxGraphModel>
  </diagram>
  <diagram id="yFY3LbdXPZXmhtqC__oZ" name="ER">
    <mxGraphModel dx="1653" dy="967" grid="1" gridSize="10" guides="1" tooltips="1" connect="1" arrows="1" fold="1" page="1" pageScale="1" pageWidth="850" pageHeight="1100" math="0" shadow="0">
      <root>
        <mxCell id="PwaTu7p60dUE81cceDsY-0" />
        <mxCell id="PwaTu7p60dUE81cceDsY-1" parent="PwaTu7p60dUE81cceDsY-0" />
        <mxCell id="L5ylvrpwBdviAEt-Qz8t-1" value="Project" style="shape=table;startSize=30;container=1;collapsible=1;childLayout=tableLayout;fixedRows=1;rowLines=0;fontStyle=1;align=center;resizeLast=1;" vertex="1" parent="PwaTu7p60dUE81cceDsY-1">
          <mxGeometry x="20" y="120" width="180" height="160" as="geometry" />
        </mxCell>
        <mxCell id="L5ylvrpwBdviAEt-Qz8t-2" value="" style="shape=partialRectangle;collapsible=0;dropTarget=0;pointerEvents=0;fillColor=none;top=0;left=0;bottom=1;right=0;points=[[0,0.5],[1,0.5]];portConstraint=eastwest;" vertex="1" parent="L5ylvrpwBdviAEt-Qz8t-1">
          <mxGeometry y="30" width="180" height="30" as="geometry" />
        </mxCell>
        <mxCell id="L5ylvrpwBdviAEt-Qz8t-3" value="PK" style="shape=partialRectangle;connectable=0;fillColor=none;top=0;left=0;bottom=0;right=0;fontStyle=1;overflow=hidden;" vertex="1" parent="L5ylvrpwBdviAEt-Qz8t-2">
          <mxGeometry width="30" height="30" as="geometry" />
        </mxCell>
        <mxCell id="L5ylvrpwBdviAEt-Qz8t-4" value="ID" style="shape=partialRectangle;connectable=0;fillColor=none;top=0;left=0;bottom=0;right=0;align=left;spacingLeft=6;fontStyle=5;overflow=hidden;" vertex="1" parent="L5ylvrpwBdviAEt-Qz8t-2">
          <mxGeometry x="30" width="150" height="30" as="geometry" />
        </mxCell>
        <mxCell id="L5ylvrpwBdviAEt-Qz8t-5" value="" style="shape=partialRectangle;collapsible=0;dropTarget=0;pointerEvents=0;fillColor=none;top=0;left=0;bottom=0;right=0;points=[[0,0.5],[1,0.5]];portConstraint=eastwest;" vertex="1" parent="L5ylvrpwBdviAEt-Qz8t-1">
          <mxGeometry y="60" width="180" height="30" as="geometry" />
        </mxCell>
        <mxCell id="L5ylvrpwBdviAEt-Qz8t-6" value="" style="shape=partialRectangle;connectable=0;fillColor=none;top=0;left=0;bottom=0;right=0;editable=1;overflow=hidden;" vertex="1" parent="L5ylvrpwBdviAEt-Qz8t-5">
          <mxGeometry width="30" height="30" as="geometry" />
        </mxCell>
        <mxCell id="L5ylvrpwBdviAEt-Qz8t-7" value="Name" style="shape=partialRectangle;connectable=0;fillColor=none;top=0;left=0;bottom=0;right=0;align=left;spacingLeft=6;overflow=hidden;" vertex="1" parent="L5ylvrpwBdviAEt-Qz8t-5">
          <mxGeometry x="30" width="150" height="30" as="geometry" />
        </mxCell>
        <mxCell id="91rYIZHFWO9bT6SMrM9P-140" value="" style="shape=partialRectangle;collapsible=0;dropTarget=0;pointerEvents=0;fillColor=none;top=0;left=0;bottom=0;right=0;points=[[0,0.5],[1,0.5]];portConstraint=eastwest;" vertex="1" parent="L5ylvrpwBdviAEt-Qz8t-1">
          <mxGeometry y="90" width="180" height="30" as="geometry" />
        </mxCell>
        <mxCell id="91rYIZHFWO9bT6SMrM9P-141" value="" style="shape=partialRectangle;connectable=0;fillColor=none;top=0;left=0;bottom=0;right=0;editable=1;overflow=hidden;" vertex="1" parent="91rYIZHFWO9bT6SMrM9P-140">
          <mxGeometry width="30" height="30" as="geometry" />
        </mxCell>
        <mxCell id="91rYIZHFWO9bT6SMrM9P-142" value="Velocity" style="shape=partialRectangle;connectable=0;fillColor=none;top=0;left=0;bottom=0;right=0;align=left;spacingLeft=6;overflow=hidden;" vertex="1" parent="91rYIZHFWO9bT6SMrM9P-140">
          <mxGeometry x="30" width="150" height="30" as="geometry" />
        </mxCell>
        <mxCell id="L5ylvrpwBdviAEt-Qz8t-8" value="" style="shape=partialRectangle;collapsible=0;dropTarget=0;pointerEvents=0;fillColor=none;top=0;left=0;bottom=0;right=0;points=[[0,0.5],[1,0.5]];portConstraint=eastwest;" vertex="1" parent="L5ylvrpwBdviAEt-Qz8t-1">
          <mxGeometry y="120" width="180" height="30" as="geometry" />
        </mxCell>
        <mxCell id="L5ylvrpwBdviAEt-Qz8t-9" value="" style="shape=partialRectangle;connectable=0;fillColor=none;top=0;left=0;bottom=0;right=0;editable=1;overflow=hidden;" vertex="1" parent="L5ylvrpwBdviAEt-Qz8t-8">
          <mxGeometry width="30" height="30" as="geometry" />
        </mxCell>
        <mxCell id="L5ylvrpwBdviAEt-Qz8t-10" value="Timestamp" style="shape=partialRectangle;connectable=0;fillColor=none;top=0;left=0;bottom=0;right=0;align=left;spacingLeft=6;overflow=hidden;" vertex="1" parent="L5ylvrpwBdviAEt-Qz8t-8">
          <mxGeometry x="30" width="150" height="30" as="geometry" />
        </mxCell>
        <mxCell id="91rYIZHFWO9bT6SMrM9P-0" value="User" style="shape=table;startSize=30;container=1;collapsible=1;childLayout=tableLayout;fixedRows=1;rowLines=0;fontStyle=1;align=center;resizeLast=1;" vertex="1" parent="PwaTu7p60dUE81cceDsY-1">
          <mxGeometry x="1370" y="170" width="180" height="190" as="geometry" />
        </mxCell>
        <mxCell id="91rYIZHFWO9bT6SMrM9P-1" value="" style="shape=partialRectangle;collapsible=0;dropTarget=0;pointerEvents=0;fillColor=none;top=0;left=0;bottom=1;right=0;points=[[0,0.5],[1,0.5]];portConstraint=eastwest;" vertex="1" parent="91rYIZHFWO9bT6SMrM9P-0">
          <mxGeometry y="30" width="180" height="30" as="geometry" />
        </mxCell>
        <mxCell id="91rYIZHFWO9bT6SMrM9P-2" value="PK" style="shape=partialRectangle;connectable=0;fillColor=none;top=0;left=0;bottom=0;right=0;fontStyle=1;overflow=hidden;" vertex="1" parent="91rYIZHFWO9bT6SMrM9P-1">
          <mxGeometry width="30" height="30" as="geometry" />
        </mxCell>
        <mxCell id="91rYIZHFWO9bT6SMrM9P-3" value="ID" style="shape=partialRectangle;connectable=0;fillColor=none;top=0;left=0;bottom=0;right=0;align=left;spacingLeft=6;fontStyle=5;overflow=hidden;" vertex="1" parent="91rYIZHFWO9bT6SMrM9P-1">
          <mxGeometry x="30" width="150" height="30" as="geometry" />
        </mxCell>
        <mxCell id="91rYIZHFWO9bT6SMrM9P-4" value="" style="shape=partialRectangle;collapsible=0;dropTarget=0;pointerEvents=0;fillColor=none;top=0;left=0;bottom=0;right=0;points=[[0,0.5],[1,0.5]];portConstraint=eastwest;" vertex="1" parent="91rYIZHFWO9bT6SMrM9P-0">
          <mxGeometry y="60" width="180" height="30" as="geometry" />
        </mxCell>
        <mxCell id="91rYIZHFWO9bT6SMrM9P-5" value="" style="shape=partialRectangle;connectable=0;fillColor=none;top=0;left=0;bottom=0;right=0;editable=1;overflow=hidden;" vertex="1" parent="91rYIZHFWO9bT6SMrM9P-4">
          <mxGeometry width="30" height="30" as="geometry" />
        </mxCell>
        <mxCell id="91rYIZHFWO9bT6SMrM9P-6" value="Username" style="shape=partialRectangle;connectable=0;fillColor=none;top=0;left=0;bottom=0;right=0;align=left;spacingLeft=6;overflow=hidden;" vertex="1" parent="91rYIZHFWO9bT6SMrM9P-4">
          <mxGeometry x="30" width="150" height="30" as="geometry" />
        </mxCell>
        <mxCell id="91rYIZHFWO9bT6SMrM9P-7" value="" style="shape=partialRectangle;collapsible=0;dropTarget=0;pointerEvents=0;fillColor=none;top=0;left=0;bottom=0;right=0;points=[[0,0.5],[1,0.5]];portConstraint=eastwest;" vertex="1" parent="91rYIZHFWO9bT6SMrM9P-0">
          <mxGeometry y="90" width="180" height="30" as="geometry" />
        </mxCell>
        <mxCell id="91rYIZHFWO9bT6SMrM9P-8" value="" style="shape=partialRectangle;connectable=0;fillColor=none;top=0;left=0;bottom=0;right=0;editable=1;overflow=hidden;" vertex="1" parent="91rYIZHFWO9bT6SMrM9P-7">
          <mxGeometry width="30" height="30" as="geometry" />
        </mxCell>
        <mxCell id="91rYIZHFWO9bT6SMrM9P-9" value="Password" style="shape=partialRectangle;connectable=0;fillColor=none;top=0;left=0;bottom=0;right=0;align=left;spacingLeft=6;overflow=hidden;" vertex="1" parent="91rYIZHFWO9bT6SMrM9P-7">
          <mxGeometry x="30" width="150" height="30" as="geometry" />
        </mxCell>
        <mxCell id="91rYIZHFWO9bT6SMrM9P-28" value="" style="shape=partialRectangle;collapsible=0;dropTarget=0;pointerEvents=0;fillColor=none;top=0;left=0;bottom=0;right=0;points=[[0,0.5],[1,0.5]];portConstraint=eastwest;" vertex="1" parent="91rYIZHFWO9bT6SMrM9P-0">
          <mxGeometry y="120" width="180" height="30" as="geometry" />
        </mxCell>
        <mxCell id="91rYIZHFWO9bT6SMrM9P-29" value="" style="shape=partialRectangle;connectable=0;fillColor=none;top=0;left=0;bottom=0;right=0;editable=1;overflow=hidden;" vertex="1" parent="91rYIZHFWO9bT6SMrM9P-28">
          <mxGeometry width="30" height="30" as="geometry" />
        </mxCell>
        <mxCell id="91rYIZHFWO9bT6SMrM9P-30" value="isManager" style="shape=partialRectangle;connectable=0;fillColor=none;top=0;left=0;bottom=0;right=0;align=left;spacingLeft=6;overflow=hidden;" vertex="1" parent="91rYIZHFWO9bT6SMrM9P-28">
          <mxGeometry x="30" width="150" height="30" as="geometry" />
        </mxCell>
        <mxCell id="91rYIZHFWO9bT6SMrM9P-80" value="" style="shape=partialRectangle;collapsible=0;dropTarget=0;pointerEvents=0;fillColor=none;top=0;left=0;bottom=0;right=0;points=[[0,0.5],[1,0.5]];portConstraint=eastwest;" vertex="1" parent="91rYIZHFWO9bT6SMrM9P-0">
          <mxGeometry y="150" width="180" height="30" as="geometry" />
        </mxCell>
        <mxCell id="91rYIZHFWO9bT6SMrM9P-81" value="" style="shape=partialRectangle;connectable=0;fillColor=none;top=0;left=0;bottom=0;right=0;editable=1;overflow=hidden;" vertex="1" parent="91rYIZHFWO9bT6SMrM9P-80">
          <mxGeometry width="30" height="30" as="geometry" />
        </mxCell>
        <mxCell id="91rYIZHFWO9bT6SMrM9P-82" value="TimeStamp" style="shape=partialRectangle;connectable=0;fillColor=none;top=0;left=0;bottom=0;right=0;align=left;spacingLeft=6;overflow=hidden;" vertex="1" parent="91rYIZHFWO9bT6SMrM9P-80">
          <mxGeometry x="30" width="150" height="30" as="geometry" />
        </mxCell>
        <mxCell id="91rYIZHFWO9bT6SMrM9P-17" value="Profile" style="shape=table;startSize=30;container=1;collapsible=1;childLayout=tableLayout;fixedRows=1;rowLines=0;fontStyle=1;align=center;resizeLast=1;" vertex="1" parent="PwaTu7p60dUE81cceDsY-1">
          <mxGeometry x="1130" y="370" width="180" height="310" as="geometry" />
        </mxCell>
        <mxCell id="91rYIZHFWO9bT6SMrM9P-18" value="" style="shape=partialRectangle;collapsible=0;dropTarget=0;pointerEvents=0;fillColor=none;top=0;left=0;bottom=1;right=0;points=[[0,0.5],[1,0.5]];portConstraint=eastwest;" vertex="1" parent="91rYIZHFWO9bT6SMrM9P-17">
          <mxGeometry y="30" width="180" height="30" as="geometry" />
        </mxCell>
        <mxCell id="91rYIZHFWO9bT6SMrM9P-19" value="PK" style="shape=partialRectangle;connectable=0;fillColor=none;top=0;left=0;bottom=0;right=0;fontStyle=1;overflow=hidden;" vertex="1" parent="91rYIZHFWO9bT6SMrM9P-18">
          <mxGeometry width="30" height="30" as="geometry" />
        </mxCell>
        <mxCell id="91rYIZHFWO9bT6SMrM9P-20" value="ID" style="shape=partialRectangle;connectable=0;fillColor=none;top=0;left=0;bottom=0;right=0;align=left;spacingLeft=6;fontStyle=5;overflow=hidden;" vertex="1" parent="91rYIZHFWO9bT6SMrM9P-18">
          <mxGeometry x="30" width="150" height="30" as="geometry" />
        </mxCell>
        <mxCell id="91rYIZHFWO9bT6SMrM9P-56" value="" style="shape=partialRectangle;collapsible=0;dropTarget=0;pointerEvents=0;fillColor=none;top=0;left=0;bottom=0;right=0;points=[[0,0.5],[1,0.5]];portConstraint=eastwest;" vertex="1" parent="91rYIZHFWO9bT6SMrM9P-17">
          <mxGeometry y="60" width="180" height="30" as="geometry" />
        </mxCell>
        <mxCell id="91rYIZHFWO9bT6SMrM9P-57" value="" style="shape=partialRectangle;connectable=0;fillColor=none;top=0;left=0;bottom=0;right=0;editable=1;overflow=hidden;" vertex="1" parent="91rYIZHFWO9bT6SMrM9P-56">
          <mxGeometry width="30" height="30" as="geometry" />
        </mxCell>
        <mxCell id="91rYIZHFWO9bT6SMrM9P-58" value="CIN" style="shape=partialRectangle;connectable=0;fillColor=none;top=0;left=0;bottom=0;right=0;align=left;spacingLeft=6;overflow=hidden;" vertex="1" parent="91rYIZHFWO9bT6SMrM9P-56">
          <mxGeometry x="30" width="150" height="30" as="geometry" />
        </mxCell>
        <mxCell id="91rYIZHFWO9bT6SMrM9P-21" value="" style="shape=partialRectangle;collapsible=0;dropTarget=0;pointerEvents=0;fillColor=none;top=0;left=0;bottom=0;right=0;points=[[0,0.5],[1,0.5]];portConstraint=eastwest;" vertex="1" parent="91rYIZHFWO9bT6SMrM9P-17">
          <mxGeometry y="90" width="180" height="30" as="geometry" />
        </mxCell>
        <mxCell id="91rYIZHFWO9bT6SMrM9P-22" value="" style="shape=partialRectangle;connectable=0;fillColor=none;top=0;left=0;bottom=0;right=0;editable=1;overflow=hidden;" vertex="1" parent="91rYIZHFWO9bT6SMrM9P-21">
          <mxGeometry width="30" height="30" as="geometry" />
        </mxCell>
        <mxCell id="91rYIZHFWO9bT6SMrM9P-23" value="FirstName" style="shape=partialRectangle;connectable=0;fillColor=none;top=0;left=0;bottom=0;right=0;align=left;spacingLeft=6;overflow=hidden;" vertex="1" parent="91rYIZHFWO9bT6SMrM9P-21">
          <mxGeometry x="30" width="150" height="30" as="geometry" />
        </mxCell>
        <mxCell id="91rYIZHFWO9bT6SMrM9P-24" value="" style="shape=partialRectangle;collapsible=0;dropTarget=0;pointerEvents=0;fillColor=none;top=0;left=0;bottom=0;right=0;points=[[0,0.5],[1,0.5]];portConstraint=eastwest;" vertex="1" parent="91rYIZHFWO9bT6SMrM9P-17">
          <mxGeometry y="120" width="180" height="30" as="geometry" />
        </mxCell>
        <mxCell id="91rYIZHFWO9bT6SMrM9P-25" value="" style="shape=partialRectangle;connectable=0;fillColor=none;top=0;left=0;bottom=0;right=0;editable=1;overflow=hidden;" vertex="1" parent="91rYIZHFWO9bT6SMrM9P-24">
          <mxGeometry width="30" height="30" as="geometry" />
        </mxCell>
        <mxCell id="91rYIZHFWO9bT6SMrM9P-26" value="LastName" style="shape=partialRectangle;connectable=0;fillColor=none;top=0;left=0;bottom=0;right=0;align=left;spacingLeft=6;overflow=hidden;" vertex="1" parent="91rYIZHFWO9bT6SMrM9P-24">
          <mxGeometry x="30" width="150" height="30" as="geometry" />
        </mxCell>
        <mxCell id="91rYIZHFWO9bT6SMrM9P-36" value="" style="shape=partialRectangle;collapsible=0;dropTarget=0;pointerEvents=0;fillColor=none;top=0;left=0;bottom=0;right=0;points=[[0,0.5],[1,0.5]];portConstraint=eastwest;" vertex="1" parent="91rYIZHFWO9bT6SMrM9P-17">
          <mxGeometry y="150" width="180" height="30" as="geometry" />
        </mxCell>
        <mxCell id="91rYIZHFWO9bT6SMrM9P-37" value="" style="shape=partialRectangle;connectable=0;fillColor=none;top=0;left=0;bottom=0;right=0;editable=1;overflow=hidden;" vertex="1" parent="91rYIZHFWO9bT6SMrM9P-36">
          <mxGeometry width="30" height="30" as="geometry" />
        </mxCell>
        <mxCell id="91rYIZHFWO9bT6SMrM9P-38" value="Email" style="shape=partialRectangle;connectable=0;fillColor=none;top=0;left=0;bottom=0;right=0;align=left;spacingLeft=6;overflow=hidden;" vertex="1" parent="91rYIZHFWO9bT6SMrM9P-36">
          <mxGeometry x="30" width="150" height="30" as="geometry" />
        </mxCell>
        <mxCell id="91rYIZHFWO9bT6SMrM9P-40" value="" style="shape=partialRectangle;collapsible=0;dropTarget=0;pointerEvents=0;fillColor=none;top=0;left=0;bottom=0;right=0;points=[[0,0.5],[1,0.5]];portConstraint=eastwest;" vertex="1" parent="91rYIZHFWO9bT6SMrM9P-17">
          <mxGeometry y="180" width="180" height="30" as="geometry" />
        </mxCell>
        <mxCell id="91rYIZHFWO9bT6SMrM9P-41" value="" style="shape=partialRectangle;connectable=0;fillColor=none;top=0;left=0;bottom=0;right=0;editable=1;overflow=hidden;" vertex="1" parent="91rYIZHFWO9bT6SMrM9P-40">
          <mxGeometry width="30" height="30" as="geometry" />
        </mxCell>
        <mxCell id="91rYIZHFWO9bT6SMrM9P-42" value="Birthdate" style="shape=partialRectangle;connectable=0;fillColor=none;top=0;left=0;bottom=0;right=0;align=left;spacingLeft=6;overflow=hidden;" vertex="1" parent="91rYIZHFWO9bT6SMrM9P-40">
          <mxGeometry x="30" width="150" height="30" as="geometry" />
        </mxCell>
        <mxCell id="91rYIZHFWO9bT6SMrM9P-44" value="" style="shape=partialRectangle;collapsible=0;dropTarget=0;pointerEvents=0;fillColor=none;top=0;left=0;bottom=0;right=0;points=[[0,0.5],[1,0.5]];portConstraint=eastwest;" vertex="1" parent="91rYIZHFWO9bT6SMrM9P-17">
          <mxGeometry y="210" width="180" height="30" as="geometry" />
        </mxCell>
        <mxCell id="91rYIZHFWO9bT6SMrM9P-45" value="" style="shape=partialRectangle;connectable=0;fillColor=none;top=0;left=0;bottom=0;right=0;editable=1;overflow=hidden;" vertex="1" parent="91rYIZHFWO9bT6SMrM9P-44">
          <mxGeometry width="30" height="30" as="geometry" />
        </mxCell>
        <mxCell id="91rYIZHFWO9bT6SMrM9P-46" value="Picture" style="shape=partialRectangle;connectable=0;fillColor=none;top=0;left=0;bottom=0;right=0;align=left;spacingLeft=6;overflow=hidden;" vertex="1" parent="91rYIZHFWO9bT6SMrM9P-44">
          <mxGeometry x="30" width="150" height="30" as="geometry" />
        </mxCell>
        <mxCell id="91rYIZHFWO9bT6SMrM9P-48" value="" style="shape=partialRectangle;collapsible=0;dropTarget=0;pointerEvents=0;fillColor=none;top=0;left=0;bottom=0;right=0;points=[[0,0.5],[1,0.5]];portConstraint=eastwest;" vertex="1" parent="91rYIZHFWO9bT6SMrM9P-17">
          <mxGeometry y="240" width="180" height="30" as="geometry" />
        </mxCell>
        <mxCell id="91rYIZHFWO9bT6SMrM9P-49" value="" style="shape=partialRectangle;connectable=0;fillColor=none;top=0;left=0;bottom=0;right=0;editable=1;overflow=hidden;" vertex="1" parent="91rYIZHFWO9bT6SMrM9P-48">
          <mxGeometry width="30" height="30" as="geometry" />
        </mxCell>
        <mxCell id="91rYIZHFWO9bT6SMrM9P-50" value="PhoneNumber" style="shape=partialRectangle;connectable=0;fillColor=none;top=0;left=0;bottom=0;right=0;align=left;spacingLeft=6;overflow=hidden;" vertex="1" parent="91rYIZHFWO9bT6SMrM9P-48">
          <mxGeometry x="30" width="150" height="30" as="geometry" />
        </mxCell>
        <mxCell id="91rYIZHFWO9bT6SMrM9P-52" value="" style="shape=partialRectangle;collapsible=0;dropTarget=0;pointerEvents=0;fillColor=none;top=0;left=0;bottom=0;right=0;points=[[0,0.5],[1,0.5]];portConstraint=eastwest;" vertex="1" parent="91rYIZHFWO9bT6SMrM9P-17">
          <mxGeometry y="270" width="180" height="30" as="geometry" />
        </mxCell>
        <mxCell id="91rYIZHFWO9bT6SMrM9P-53" value="" style="shape=partialRectangle;connectable=0;fillColor=none;top=0;left=0;bottom=0;right=0;editable=1;overflow=hidden;" vertex="1" parent="91rYIZHFWO9bT6SMrM9P-52">
          <mxGeometry width="30" height="30" as="geometry" />
        </mxCell>
        <mxCell id="91rYIZHFWO9bT6SMrM9P-54" value="Adress" style="shape=partialRectangle;connectable=0;fillColor=none;top=0;left=0;bottom=0;right=0;align=left;spacingLeft=6;overflow=hidden;" vertex="1" parent="91rYIZHFWO9bT6SMrM9P-52">
          <mxGeometry x="30" width="150" height="30" as="geometry" />
        </mxCell>
        <mxCell id="91rYIZHFWO9bT6SMrM9P-59" value="ProductBacklog" style="shape=table;startSize=30;container=1;collapsible=1;childLayout=tableLayout;fixedRows=1;rowLines=0;fontStyle=1;align=center;resizeLast=1;" vertex="1" parent="PwaTu7p60dUE81cceDsY-1">
          <mxGeometry x="325" y="150" width="180" height="70" as="geometry" />
        </mxCell>
        <mxCell id="91rYIZHFWO9bT6SMrM9P-60" value="" style="shape=partialRectangle;collapsible=0;dropTarget=0;pointerEvents=0;fillColor=none;top=0;left=0;bottom=1;right=0;points=[[0,0.5],[1,0.5]];portConstraint=eastwest;" vertex="1" parent="91rYIZHFWO9bT6SMrM9P-59">
          <mxGeometry y="30" width="180" height="30" as="geometry" />
        </mxCell>
        <mxCell id="91rYIZHFWO9bT6SMrM9P-61" value="PK" style="shape=partialRectangle;connectable=0;fillColor=none;top=0;left=0;bottom=0;right=0;fontStyle=1;overflow=hidden;" vertex="1" parent="91rYIZHFWO9bT6SMrM9P-60">
          <mxGeometry width="30" height="30" as="geometry" />
        </mxCell>
        <mxCell id="91rYIZHFWO9bT6SMrM9P-62" value="ID" style="shape=partialRectangle;connectable=0;fillColor=none;top=0;left=0;bottom=0;right=0;align=left;spacingLeft=6;fontStyle=5;overflow=hidden;" vertex="1" parent="91rYIZHFWO9bT6SMrM9P-60">
          <mxGeometry x="30" width="150" height="30" as="geometry" />
        </mxCell>
        <mxCell id="91rYIZHFWO9bT6SMrM9P-69" value="BacklogItem" style="shape=table;startSize=30;container=1;collapsible=1;childLayout=tableLayout;fixedRows=1;rowLines=0;fontStyle=1;align=center;resizeLast=1;" vertex="1" parent="PwaTu7p60dUE81cceDsY-1">
          <mxGeometry x="610" y="150" width="180" height="250" as="geometry" />
        </mxCell>
        <mxCell id="91rYIZHFWO9bT6SMrM9P-70" value="" style="shape=partialRectangle;collapsible=0;dropTarget=0;pointerEvents=0;fillColor=none;top=0;left=0;bottom=1;right=0;points=[[0,0.5],[1,0.5]];portConstraint=eastwest;" vertex="1" parent="91rYIZHFWO9bT6SMrM9P-69">
          <mxGeometry y="30" width="180" height="30" as="geometry" />
        </mxCell>
        <mxCell id="91rYIZHFWO9bT6SMrM9P-71" value="PK" style="shape=partialRectangle;connectable=0;fillColor=none;top=0;left=0;bottom=0;right=0;fontStyle=1;overflow=hidden;" vertex="1" parent="91rYIZHFWO9bT6SMrM9P-70">
          <mxGeometry width="30" height="30" as="geometry" />
        </mxCell>
        <mxCell id="91rYIZHFWO9bT6SMrM9P-72" value="ID" style="shape=partialRectangle;connectable=0;fillColor=none;top=0;left=0;bottom=0;right=0;align=left;spacingLeft=6;fontStyle=5;overflow=hidden;" vertex="1" parent="91rYIZHFWO9bT6SMrM9P-70">
          <mxGeometry x="30" width="150" height="30" as="geometry" />
        </mxCell>
        <mxCell id="91rYIZHFWO9bT6SMrM9P-73" value="" style="shape=partialRectangle;collapsible=0;dropTarget=0;pointerEvents=0;fillColor=none;top=0;left=0;bottom=0;right=0;points=[[0,0.5],[1,0.5]];portConstraint=eastwest;" vertex="1" parent="91rYIZHFWO9bT6SMrM9P-69">
          <mxGeometry y="60" width="180" height="30" as="geometry" />
        </mxCell>
        <mxCell id="91rYIZHFWO9bT6SMrM9P-74" value="" style="shape=partialRectangle;connectable=0;fillColor=none;top=0;left=0;bottom=0;right=0;editable=1;overflow=hidden;" vertex="1" parent="91rYIZHFWO9bT6SMrM9P-73">
          <mxGeometry width="30" height="30" as="geometry" />
        </mxCell>
        <mxCell id="91rYIZHFWO9bT6SMrM9P-75" value="Timestamp" style="shape=partialRectangle;connectable=0;fillColor=none;top=0;left=0;bottom=0;right=0;align=left;spacingLeft=6;overflow=hidden;" vertex="1" parent="91rYIZHFWO9bT6SMrM9P-73">
          <mxGeometry x="30" width="150" height="30" as="geometry" />
        </mxCell>
        <mxCell id="91rYIZHFWO9bT6SMrM9P-90" value="" style="shape=partialRectangle;collapsible=0;dropTarget=0;pointerEvents=0;fillColor=none;top=0;left=0;bottom=0;right=0;points=[[0,0.5],[1,0.5]];portConstraint=eastwest;" vertex="1" parent="91rYIZHFWO9bT6SMrM9P-69">
          <mxGeometry y="90" width="180" height="30" as="geometry" />
        </mxCell>
        <mxCell id="91rYIZHFWO9bT6SMrM9P-91" value="" style="shape=partialRectangle;connectable=0;fillColor=none;top=0;left=0;bottom=0;right=0;editable=1;overflow=hidden;" vertex="1" parent="91rYIZHFWO9bT6SMrM9P-90">
          <mxGeometry width="30" height="30" as="geometry" />
        </mxCell>
        <mxCell id="91rYIZHFWO9bT6SMrM9P-92" value="Name" style="shape=partialRectangle;connectable=0;fillColor=none;top=0;left=0;bottom=0;right=0;align=left;spacingLeft=6;overflow=hidden;" vertex="1" parent="91rYIZHFWO9bT6SMrM9P-90">
          <mxGeometry x="30" width="150" height="30" as="geometry" />
        </mxCell>
        <mxCell id="91rYIZHFWO9bT6SMrM9P-98" value="" style="shape=partialRectangle;collapsible=0;dropTarget=0;pointerEvents=0;fillColor=none;top=0;left=0;bottom=0;right=0;points=[[0,0.5],[1,0.5]];portConstraint=eastwest;" vertex="1" parent="91rYIZHFWO9bT6SMrM9P-69">
          <mxGeometry y="120" width="180" height="30" as="geometry" />
        </mxCell>
        <mxCell id="91rYIZHFWO9bT6SMrM9P-99" value="" style="shape=partialRectangle;connectable=0;fillColor=none;top=0;left=0;bottom=0;right=0;editable=1;overflow=hidden;" vertex="1" parent="91rYIZHFWO9bT6SMrM9P-98">
          <mxGeometry width="30" height="30" as="geometry" />
        </mxCell>
        <mxCell id="91rYIZHFWO9bT6SMrM9P-100" value="Description" style="shape=partialRectangle;connectable=0;fillColor=none;top=0;left=0;bottom=0;right=0;align=left;spacingLeft=6;overflow=hidden;" vertex="1" parent="91rYIZHFWO9bT6SMrM9P-98">
          <mxGeometry x="30" width="150" height="30" as="geometry" />
        </mxCell>
        <mxCell id="91rYIZHFWO9bT6SMrM9P-94" value="" style="shape=partialRectangle;collapsible=0;dropTarget=0;pointerEvents=0;fillColor=none;top=0;left=0;bottom=0;right=0;points=[[0,0.5],[1,0.5]];portConstraint=eastwest;" vertex="1" parent="91rYIZHFWO9bT6SMrM9P-69">
          <mxGeometry y="150" width="180" height="30" as="geometry" />
        </mxCell>
        <mxCell id="91rYIZHFWO9bT6SMrM9P-95" value="" style="shape=partialRectangle;connectable=0;fillColor=none;top=0;left=0;bottom=0;right=0;editable=1;overflow=hidden;" vertex="1" parent="91rYIZHFWO9bT6SMrM9P-94">
          <mxGeometry width="30" height="30" as="geometry" />
        </mxCell>
        <mxCell id="91rYIZHFWO9bT6SMrM9P-96" value="Priority" style="shape=partialRectangle;connectable=0;fillColor=none;top=0;left=0;bottom=0;right=0;align=left;spacingLeft=6;overflow=hidden;" vertex="1" parent="91rYIZHFWO9bT6SMrM9P-94">
          <mxGeometry x="30" width="150" height="30" as="geometry" />
        </mxCell>
        <mxCell id="91rYIZHFWO9bT6SMrM9P-107" value="" style="shape=partialRectangle;collapsible=0;dropTarget=0;pointerEvents=0;fillColor=none;top=0;left=0;bottom=0;right=0;points=[[0,0.5],[1,0.5]];portConstraint=eastwest;" vertex="1" parent="91rYIZHFWO9bT6SMrM9P-69">
          <mxGeometry y="180" width="180" height="30" as="geometry" />
        </mxCell>
        <mxCell id="91rYIZHFWO9bT6SMrM9P-108" value="" style="shape=partialRectangle;connectable=0;fillColor=none;top=0;left=0;bottom=0;right=0;editable=1;overflow=hidden;" vertex="1" parent="91rYIZHFWO9bT6SMrM9P-107">
          <mxGeometry width="30" height="30" as="geometry" />
        </mxCell>
        <mxCell id="91rYIZHFWO9bT6SMrM9P-109" value="Status" style="shape=partialRectangle;connectable=0;fillColor=none;top=0;left=0;bottom=0;right=0;align=left;spacingLeft=6;overflow=hidden;" vertex="1" parent="91rYIZHFWO9bT6SMrM9P-107">
          <mxGeometry x="30" width="150" height="30" as="geometry" />
        </mxCell>
        <mxCell id="91rYIZHFWO9bT6SMrM9P-103" value="" style="shape=partialRectangle;collapsible=0;dropTarget=0;pointerEvents=0;fillColor=none;top=0;left=0;bottom=0;right=0;points=[[0,0.5],[1,0.5]];portConstraint=eastwest;" vertex="1" parent="91rYIZHFWO9bT6SMrM9P-69">
          <mxGeometry y="210" width="180" height="30" as="geometry" />
        </mxCell>
        <mxCell id="91rYIZHFWO9bT6SMrM9P-104" value="" style="shape=partialRectangle;connectable=0;fillColor=none;top=0;left=0;bottom=0;right=0;editable=1;overflow=hidden;" vertex="1" parent="91rYIZHFWO9bT6SMrM9P-103">
          <mxGeometry width="30" height="30" as="geometry" />
        </mxCell>
        <mxCell id="91rYIZHFWO9bT6SMrM9P-105" value="EffortEstimation" style="shape=partialRectangle;connectable=0;fillColor=none;top=0;left=0;bottom=0;right=0;align=left;spacingLeft=6;overflow=hidden;" vertex="1" parent="91rYIZHFWO9bT6SMrM9P-103">
          <mxGeometry x="30" width="150" height="30" as="geometry" />
        </mxCell>
        <mxCell id="91rYIZHFWO9bT6SMrM9P-87" value="" style="edgeStyle=entityRelationEdgeStyle;fontSize=12;html=1;endArrow=ERmandOne;startArrow=ERmandOne;entryX=0;entryY=0.5;entryDx=0;entryDy=0;exitX=1;exitY=0.5;exitDx=0;exitDy=0;" edge="1" parent="PwaTu7p60dUE81cceDsY-1" source="L5ylvrpwBdviAEt-Qz8t-5" target="91rYIZHFWO9bT6SMrM9P-60">
          <mxGeometry width="100" height="100" relative="1" as="geometry">
            <mxPoint x="50" y="160" as="sourcePoint" />
            <mxPoint x="410" y="90" as="targetPoint" />
          </mxGeometry>
        </mxCell>
        <mxCell id="91rYIZHFWO9bT6SMrM9P-88" value="" style="edgeStyle=entityRelationEdgeStyle;fontSize=12;html=1;endArrow=ERoneToMany;exitX=1;exitY=0.5;exitDx=0;exitDy=0;entryX=0;entryY=0.5;entryDx=0;entryDy=0;" edge="1" parent="PwaTu7p60dUE81cceDsY-1" source="91rYIZHFWO9bT6SMrM9P-60" target="91rYIZHFWO9bT6SMrM9P-70">
          <mxGeometry width="100" height="100" relative="1" as="geometry">
            <mxPoint x="310" y="290" as="sourcePoint" />
            <mxPoint x="410" y="190" as="targetPoint" />
          </mxGeometry>
        </mxCell>
        <mxCell id="91rYIZHFWO9bT6SMrM9P-110" value="Sprint" style="shape=table;startSize=30;container=1;collapsible=1;childLayout=tableLayout;fixedRows=1;rowLines=0;fontStyle=1;align=center;resizeLast=1;" vertex="1" parent="PwaTu7p60dUE81cceDsY-1">
          <mxGeometry x="120" y="400" width="180" height="190" as="geometry" />
        </mxCell>
        <mxCell id="91rYIZHFWO9bT6SMrM9P-111" value="" style="shape=partialRectangle;collapsible=0;dropTarget=0;pointerEvents=0;fillColor=none;top=0;left=0;bottom=1;right=0;points=[[0,0.5],[1,0.5]];portConstraint=eastwest;" vertex="1" parent="91rYIZHFWO9bT6SMrM9P-110">
          <mxGeometry y="30" width="180" height="30" as="geometry" />
        </mxCell>
        <mxCell id="91rYIZHFWO9bT6SMrM9P-112" value="PK" style="shape=partialRectangle;connectable=0;fillColor=none;top=0;left=0;bottom=0;right=0;fontStyle=1;overflow=hidden;" vertex="1" parent="91rYIZHFWO9bT6SMrM9P-111">
          <mxGeometry width="30" height="30" as="geometry" />
        </mxCell>
        <mxCell id="91rYIZHFWO9bT6SMrM9P-113" value="ID" style="shape=partialRectangle;connectable=0;fillColor=none;top=0;left=0;bottom=0;right=0;align=left;spacingLeft=6;fontStyle=5;overflow=hidden;" vertex="1" parent="91rYIZHFWO9bT6SMrM9P-111">
          <mxGeometry x="30" width="150" height="30" as="geometry" />
        </mxCell>
        <mxCell id="91rYIZHFWO9bT6SMrM9P-120" value="" style="shape=partialRectangle;collapsible=0;dropTarget=0;pointerEvents=0;fillColor=none;top=0;left=0;bottom=0;right=0;points=[[0,0.5],[1,0.5]];portConstraint=eastwest;" vertex="1" parent="91rYIZHFWO9bT6SMrM9P-110">
          <mxGeometry y="60" width="180" height="30" as="geometry" />
        </mxCell>
        <mxCell id="91rYIZHFWO9bT6SMrM9P-121" value="" style="shape=partialRectangle;connectable=0;fillColor=none;top=0;left=0;bottom=0;right=0;editable=1;overflow=hidden;" vertex="1" parent="91rYIZHFWO9bT6SMrM9P-120">
          <mxGeometry width="30" height="30" as="geometry" />
        </mxCell>
        <mxCell id="91rYIZHFWO9bT6SMrM9P-122" value="Number" style="shape=partialRectangle;connectable=0;fillColor=none;top=0;left=0;bottom=0;right=0;align=left;spacingLeft=6;overflow=hidden;" vertex="1" parent="91rYIZHFWO9bT6SMrM9P-120">
          <mxGeometry x="30" width="150" height="30" as="geometry" />
        </mxCell>
        <mxCell id="91rYIZHFWO9bT6SMrM9P-124" value="" style="shape=partialRectangle;collapsible=0;dropTarget=0;pointerEvents=0;fillColor=none;top=0;left=0;bottom=0;right=0;points=[[0,0.5],[1,0.5]];portConstraint=eastwest;" vertex="1" parent="91rYIZHFWO9bT6SMrM9P-110">
          <mxGeometry y="90" width="180" height="30" as="geometry" />
        </mxCell>
        <mxCell id="91rYIZHFWO9bT6SMrM9P-125" value="" style="shape=partialRectangle;connectable=0;fillColor=none;top=0;left=0;bottom=0;right=0;editable=1;overflow=hidden;" vertex="1" parent="91rYIZHFWO9bT6SMrM9P-124">
          <mxGeometry width="30" height="30" as="geometry" />
        </mxCell>
        <mxCell id="91rYIZHFWO9bT6SMrM9P-126" value="TimeStamp" style="shape=partialRectangle;connectable=0;fillColor=none;top=0;left=0;bottom=0;right=0;align=left;spacingLeft=6;overflow=hidden;" vertex="1" parent="91rYIZHFWO9bT6SMrM9P-124">
          <mxGeometry x="30" width="150" height="30" as="geometry" />
        </mxCell>
        <mxCell id="91rYIZHFWO9bT6SMrM9P-128" value="" style="shape=partialRectangle;collapsible=0;dropTarget=0;pointerEvents=0;fillColor=none;top=0;left=0;bottom=0;right=0;points=[[0,0.5],[1,0.5]];portConstraint=eastwest;" vertex="1" parent="91rYIZHFWO9bT6SMrM9P-110">
          <mxGeometry y="120" width="180" height="30" as="geometry" />
        </mxCell>
        <mxCell id="91rYIZHFWO9bT6SMrM9P-129" value="" style="shape=partialRectangle;connectable=0;fillColor=none;top=0;left=0;bottom=0;right=0;editable=1;overflow=hidden;" vertex="1" parent="91rYIZHFWO9bT6SMrM9P-128">
          <mxGeometry width="30" height="30" as="geometry" />
        </mxCell>
        <mxCell id="91rYIZHFWO9bT6SMrM9P-130" value="Duration" style="shape=partialRectangle;connectable=0;fillColor=none;top=0;left=0;bottom=0;right=0;align=left;spacingLeft=6;overflow=hidden;" vertex="1" parent="91rYIZHFWO9bT6SMrM9P-128">
          <mxGeometry x="30" width="150" height="30" as="geometry" />
        </mxCell>
        <mxCell id="91rYIZHFWO9bT6SMrM9P-132" value="" style="shape=partialRectangle;collapsible=0;dropTarget=0;pointerEvents=0;fillColor=none;top=0;left=0;bottom=0;right=0;points=[[0,0.5],[1,0.5]];portConstraint=eastwest;" vertex="1" parent="91rYIZHFWO9bT6SMrM9P-110">
          <mxGeometry y="150" width="180" height="30" as="geometry" />
        </mxCell>
        <mxCell id="91rYIZHFWO9bT6SMrM9P-133" value="" style="shape=partialRectangle;connectable=0;fillColor=none;top=0;left=0;bottom=0;right=0;editable=1;overflow=hidden;" vertex="1" parent="91rYIZHFWO9bT6SMrM9P-132">
          <mxGeometry width="30" height="30" as="geometry" />
        </mxCell>
        <mxCell id="91rYIZHFWO9bT6SMrM9P-134" value="Description" style="shape=partialRectangle;connectable=0;fillColor=none;top=0;left=0;bottom=0;right=0;align=left;spacingLeft=6;overflow=hidden;" vertex="1" parent="91rYIZHFWO9bT6SMrM9P-132">
          <mxGeometry x="30" width="150" height="30" as="geometry" />
        </mxCell>
        <mxCell id="91rYIZHFWO9bT6SMrM9P-114" value="" style="edgeStyle=entityRelationEdgeStyle;fontSize=12;html=1;endArrow=ERoneToMany;entryX=0;entryY=0.5;entryDx=0;entryDy=0;exitX=0.5;exitY=1;exitDx=0;exitDy=0;" edge="1" parent="PwaTu7p60dUE81cceDsY-1" source="L5ylvrpwBdviAEt-Qz8t-1" target="91rYIZHFWO9bT6SMrM9P-111">
          <mxGeometry width="100" height="100" relative="1" as="geometry">
            <mxPoint x="190" y="290" as="sourcePoint" />
            <mxPoint x="260" y="310" as="targetPoint" />
          </mxGeometry>
        </mxCell>
        <mxCell id="91rYIZHFWO9bT6SMrM9P-115" value="SprintBacklog" style="shape=table;startSize=30;container=1;collapsible=1;childLayout=tableLayout;fixedRows=1;rowLines=0;fontStyle=1;align=center;resizeLast=1;" vertex="1" parent="PwaTu7p60dUE81cceDsY-1">
          <mxGeometry x="360" y="410" width="180" height="70" as="geometry" />
        </mxCell>
        <mxCell id="91rYIZHFWO9bT6SMrM9P-116" value="" style="shape=partialRectangle;collapsible=0;dropTarget=0;pointerEvents=0;fillColor=none;top=0;left=0;bottom=1;right=0;points=[[0,0.5],[1,0.5]];portConstraint=eastwest;" vertex="1" parent="91rYIZHFWO9bT6SMrM9P-115">
          <mxGeometry y="30" width="180" height="30" as="geometry" />
        </mxCell>
        <mxCell id="91rYIZHFWO9bT6SMrM9P-117" value="PK" style="shape=partialRectangle;connectable=0;fillColor=none;top=0;left=0;bottom=0;right=0;fontStyle=1;overflow=hidden;" vertex="1" parent="91rYIZHFWO9bT6SMrM9P-116">
          <mxGeometry width="30" height="30" as="geometry" />
        </mxCell>
        <mxCell id="91rYIZHFWO9bT6SMrM9P-118" value="ID" style="shape=partialRectangle;connectable=0;fillColor=none;top=0;left=0;bottom=0;right=0;align=left;spacingLeft=6;fontStyle=5;overflow=hidden;" vertex="1" parent="91rYIZHFWO9bT6SMrM9P-116">
          <mxGeometry x="30" width="150" height="30" as="geometry" />
        </mxCell>
        <mxCell id="91rYIZHFWO9bT6SMrM9P-143" value="" style="edgeStyle=entityRelationEdgeStyle;fontSize=12;html=1;endArrow=ERmandOne;startArrow=ERmandOne;exitX=1;exitY=0.5;exitDx=0;exitDy=0;" edge="1" parent="PwaTu7p60dUE81cceDsY-1" source="91rYIZHFWO9bT6SMrM9P-124" target="91rYIZHFWO9bT6SMrM9P-116">
          <mxGeometry width="100" height="100" relative="1" as="geometry">
            <mxPoint x="400" y="550" as="sourcePoint" />
            <mxPoint x="500" y="450" as="targetPoint" />
          </mxGeometry>
        </mxCell>
        <mxCell id="91rYIZHFWO9bT6SMrM9P-144" value="Tasks" style="shape=table;startSize=20;container=1;collapsible=1;childLayout=tableLayout;fixedRows=1;rowLines=0;fontStyle=1;align=center;resizeLast=1;" vertex="1" parent="PwaTu7p60dUE81cceDsY-1">
          <mxGeometry x="890" y="160" width="180" height="250" as="geometry" />
        </mxCell>
        <mxCell id="91rYIZHFWO9bT6SMrM9P-145" value="" style="shape=partialRectangle;collapsible=0;dropTarget=0;pointerEvents=0;fillColor=none;top=0;left=0;bottom=1;right=0;points=[[0,0.5],[1,0.5]];portConstraint=eastwest;" vertex="1" parent="91rYIZHFWO9bT6SMrM9P-144">
          <mxGeometry y="20" width="180" height="30" as="geometry" />
        </mxCell>
        <mxCell id="91rYIZHFWO9bT6SMrM9P-146" value="PK" style="shape=partialRectangle;connectable=0;fillColor=none;top=0;left=0;bottom=0;right=0;fontStyle=1;overflow=hidden;" vertex="1" parent="91rYIZHFWO9bT6SMrM9P-145">
          <mxGeometry width="30" height="30" as="geometry" />
        </mxCell>
        <mxCell id="91rYIZHFWO9bT6SMrM9P-147" value="ID" style="shape=partialRectangle;connectable=0;fillColor=none;top=0;left=0;bottom=0;right=0;align=left;spacingLeft=6;fontStyle=5;overflow=hidden;" vertex="1" parent="91rYIZHFWO9bT6SMrM9P-145">
          <mxGeometry x="30" width="150" height="30" as="geometry" />
        </mxCell>
        <mxCell id="91rYIZHFWO9bT6SMrM9P-148" value="" style="shape=partialRectangle;collapsible=0;dropTarget=0;pointerEvents=0;fillColor=none;top=0;left=0;bottom=0;right=0;points=[[0,0.5],[1,0.5]];portConstraint=eastwest;" vertex="1" parent="91rYIZHFWO9bT6SMrM9P-144">
          <mxGeometry y="50" width="180" height="30" as="geometry" />
        </mxCell>
        <mxCell id="91rYIZHFWO9bT6SMrM9P-149" value="" style="shape=partialRectangle;connectable=0;fillColor=none;top=0;left=0;bottom=0;right=0;editable=1;overflow=hidden;" vertex="1" parent="91rYIZHFWO9bT6SMrM9P-148">
          <mxGeometry width="30" height="30" as="geometry" />
        </mxCell>
        <mxCell id="91rYIZHFWO9bT6SMrM9P-150" value="Timestamp" style="shape=partialRectangle;connectable=0;fillColor=none;top=0;left=0;bottom=0;right=0;align=left;spacingLeft=6;overflow=hidden;" vertex="1" parent="91rYIZHFWO9bT6SMrM9P-148">
          <mxGeometry x="30" width="150" height="30" as="geometry" />
        </mxCell>
        <mxCell id="91rYIZHFWO9bT6SMrM9P-151" value="" style="shape=partialRectangle;collapsible=0;dropTarget=0;pointerEvents=0;fillColor=none;top=0;left=0;bottom=0;right=0;points=[[0,0.5],[1,0.5]];portConstraint=eastwest;" vertex="1" parent="91rYIZHFWO9bT6SMrM9P-144">
          <mxGeometry y="80" width="180" height="30" as="geometry" />
        </mxCell>
        <mxCell id="91rYIZHFWO9bT6SMrM9P-152" value="" style="shape=partialRectangle;connectable=0;fillColor=none;top=0;left=0;bottom=0;right=0;editable=1;overflow=hidden;" vertex="1" parent="91rYIZHFWO9bT6SMrM9P-151">
          <mxGeometry width="30" height="30" as="geometry" />
        </mxCell>
        <mxCell id="91rYIZHFWO9bT6SMrM9P-153" value="Name" style="shape=partialRectangle;connectable=0;fillColor=none;top=0;left=0;bottom=0;right=0;align=left;spacingLeft=6;overflow=hidden;" vertex="1" parent="91rYIZHFWO9bT6SMrM9P-151">
          <mxGeometry x="30" width="150" height="30" as="geometry" />
        </mxCell>
        <mxCell id="91rYIZHFWO9bT6SMrM9P-154" value="" style="shape=partialRectangle;collapsible=0;dropTarget=0;pointerEvents=0;fillColor=none;top=0;left=0;bottom=0;right=0;points=[[0,0.5],[1,0.5]];portConstraint=eastwest;" vertex="1" parent="91rYIZHFWO9bT6SMrM9P-144">
          <mxGeometry y="110" width="180" height="30" as="geometry" />
        </mxCell>
        <mxCell id="91rYIZHFWO9bT6SMrM9P-155" value="" style="shape=partialRectangle;connectable=0;fillColor=none;top=0;left=0;bottom=0;right=0;editable=1;overflow=hidden;" vertex="1" parent="91rYIZHFWO9bT6SMrM9P-154">
          <mxGeometry width="30" height="30" as="geometry" />
        </mxCell>
        <mxCell id="91rYIZHFWO9bT6SMrM9P-156" value="Description" style="shape=partialRectangle;connectable=0;fillColor=none;top=0;left=0;bottom=0;right=0;align=left;spacingLeft=6;overflow=hidden;" vertex="1" parent="91rYIZHFWO9bT6SMrM9P-154">
          <mxGeometry x="30" width="150" height="30" as="geometry" />
        </mxCell>
        <mxCell id="91rYIZHFWO9bT6SMrM9P-160" value="" style="shape=partialRectangle;collapsible=0;dropTarget=0;pointerEvents=0;fillColor=none;top=0;left=0;bottom=0;right=0;points=[[0,0.5],[1,0.5]];portConstraint=eastwest;" vertex="1" parent="91rYIZHFWO9bT6SMrM9P-144">
          <mxGeometry y="140" width="180" height="30" as="geometry" />
        </mxCell>
        <mxCell id="91rYIZHFWO9bT6SMrM9P-161" value="" style="shape=partialRectangle;connectable=0;fillColor=none;top=0;left=0;bottom=0;right=0;editable=1;overflow=hidden;" vertex="1" parent="91rYIZHFWO9bT6SMrM9P-160">
          <mxGeometry width="30" height="30" as="geometry" />
        </mxCell>
        <mxCell id="91rYIZHFWO9bT6SMrM9P-162" value="Status" style="shape=partialRectangle;connectable=0;fillColor=none;top=0;left=0;bottom=0;right=0;align=left;spacingLeft=6;overflow=hidden;" vertex="1" parent="91rYIZHFWO9bT6SMrM9P-160">
          <mxGeometry x="30" width="150" height="30" as="geometry" />
        </mxCell>
        <mxCell id="91rYIZHFWO9bT6SMrM9P-175" value="" style="shape=partialRectangle;collapsible=0;dropTarget=0;pointerEvents=0;fillColor=none;top=0;left=0;bottom=0;right=0;points=[[0,0.5],[1,0.5]];portConstraint=eastwest;" vertex="1" parent="91rYIZHFWO9bT6SMrM9P-144">
          <mxGeometry y="170" width="180" height="30" as="geometry" />
        </mxCell>
        <mxCell id="91rYIZHFWO9bT6SMrM9P-176" value="" style="shape=partialRectangle;connectable=0;fillColor=none;top=0;left=0;bottom=0;right=0;editable=1;overflow=hidden;" vertex="1" parent="91rYIZHFWO9bT6SMrM9P-175">
          <mxGeometry width="30" height="30" as="geometry" />
        </mxCell>
        <mxCell id="91rYIZHFWO9bT6SMrM9P-177" value="DoneTimeStamp" style="shape=partialRectangle;connectable=0;fillColor=none;top=0;left=0;bottom=0;right=0;align=left;spacingLeft=6;overflow=hidden;" vertex="1" parent="91rYIZHFWO9bT6SMrM9P-175">
          <mxGeometry x="30" width="150" height="30" as="geometry" />
        </mxCell>
        <mxCell id="91rYIZHFWO9bT6SMrM9P-171" value="" style="shape=partialRectangle;collapsible=0;dropTarget=0;pointerEvents=0;fillColor=none;top=0;left=0;bottom=0;right=0;points=[[0,0.5],[1,0.5]];portConstraint=eastwest;" vertex="1" parent="91rYIZHFWO9bT6SMrM9P-144">
          <mxGeometry y="200" width="180" height="30" as="geometry" />
        </mxCell>
        <mxCell id="91rYIZHFWO9bT6SMrM9P-172" value="" style="shape=partialRectangle;connectable=0;fillColor=none;top=0;left=0;bottom=0;right=0;editable=1;overflow=hidden;" vertex="1" parent="91rYIZHFWO9bT6SMrM9P-171">
          <mxGeometry width="30" height="30" as="geometry" />
        </mxCell>
        <mxCell id="91rYIZHFWO9bT6SMrM9P-173" value="InProgressTimeStamp" style="shape=partialRectangle;connectable=0;fillColor=none;top=0;left=0;bottom=0;right=0;align=left;spacingLeft=6;overflow=hidden;" vertex="1" parent="91rYIZHFWO9bT6SMrM9P-171">
          <mxGeometry x="30" width="150" height="30" as="geometry" />
        </mxCell>
        <mxCell id="91rYIZHFWO9bT6SMrM9P-167" value="" style="edgeStyle=entityRelationEdgeStyle;fontSize=12;html=1;endArrow=ERoneToMany;entryX=0;entryY=0.5;entryDx=0;entryDy=0;exitX=1;exitY=0.5;exitDx=0;exitDy=0;" edge="1" parent="PwaTu7p60dUE81cceDsY-1" source="91rYIZHFWO9bT6SMrM9P-98" target="91rYIZHFWO9bT6SMrM9P-154">
          <mxGeometry width="100" height="100" relative="1" as="geometry">
            <mxPoint x="400" y="550" as="sourcePoint" />
            <mxPoint x="500" y="450" as="targetPoint" />
          </mxGeometry>
        </mxCell>
        <mxCell id="91rYIZHFWO9bT6SMrM9P-169" value="" style="edgeStyle=entityRelationEdgeStyle;fontSize=12;html=1;endArrow=ERoneToMany;entryX=-0.003;entryY=0.06;entryDx=0;entryDy=0;entryPerimeter=0;" edge="1" parent="PwaTu7p60dUE81cceDsY-1" target="91rYIZHFWO9bT6SMrM9P-98">
          <mxGeometry width="100" height="100" relative="1" as="geometry">
            <mxPoint x="543" y="430" as="sourcePoint" />
            <mxPoint x="620" y="285" as="targetPoint" />
          </mxGeometry>
        </mxCell>
        <mxCell id="91rYIZHFWO9bT6SMrM9P-180" value="" style="edgeStyle=entityRelationEdgeStyle;fontSize=12;html=1;endArrow=ERzeroToMany;startArrow=ERzeroToOne;entryX=1;entryY=0.5;entryDx=0;entryDy=0;exitX=0;exitY=0.5;exitDx=0;exitDy=0;" edge="1" parent="PwaTu7p60dUE81cceDsY-1" source="91rYIZHFWO9bT6SMrM9P-36" target="91rYIZHFWO9bT6SMrM9P-154">
          <mxGeometry width="100" height="100" relative="1" as="geometry">
            <mxPoint x="1080" y="320" as="sourcePoint" />
            <mxPoint x="1020" y="400" as="targetPoint" />
          </mxGeometry>
        </mxCell>
        <mxCell id="91rYIZHFWO9bT6SMrM9P-181" value="" style="edgeStyle=entityRelationEdgeStyle;fontSize=12;html=1;endArrow=ERmandOne;startArrow=ERmandOne;entryX=0;entryY=0.5;entryDx=0;entryDy=0;exitX=1;exitY=0.5;exitDx=0;exitDy=0;" edge="1" parent="PwaTu7p60dUE81cceDsY-1" source="91rYIZHFWO9bT6SMrM9P-21" target="91rYIZHFWO9bT6SMrM9P-7">
          <mxGeometry width="100" height="100" relative="1" as="geometry">
            <mxPoint x="730" y="570" as="sourcePoint" />
            <mxPoint x="830" y="470" as="targetPoint" />
          </mxGeometry>
        </mxCell>
      </root>
    </mxGraphModel>
  </diagram>
</mxfile>
